<svg width="593" height="850" viewBox="0 0 593 850" fill="none" xmlns="http://www.w3.org/2000/svg">
<g clip-path="url(#clip0_2229_2354)">
<g clip-path="url(#clip1_2229_2354)">
<rect width="593" height="850" fill="#3284C6"/>
<g filter="url(#filter0_f_2229_2354)">
<rect x="140.441" y="73.8877" width="433" height="762" rx="216.5" transform="rotate(10 140.441 73.8877)" fill="#9DC4E3"/>
</g>
<g opacity="0.15" clip-path="url(#clip2_2229_2354)">
<path d="M234.778 -194.249C232.608 -181.79 232.753 -181.935 213.946 -172.518C203.386 -167.158 202.084 -165.999 198.322 -158.9C195.574 -153.685 193.838 -147.021 192.825 -139.343C190.51 -120.654 188.919 -114.28 184.868 -107.761C181.107 -101.966 180.962 -100.517 180.818 -82.6977C180.673 -65.3131 180.384 -63.2849 176.912 -57.2003C174.163 -52.2747 172.861 -47.349 172.138 -38.367C171.559 -31.7029 170.546 -25.6183 169.823 -24.8939C167.364 -22.4311 168.087 27.2599 170.546 36.0971C173.44 45.8035 176.478 47.8317 189.353 48.701C194.995 49.1356 200.782 50.2945 202.373 51.1638C206.279 53.6266 217.852 48.701 221.324 43.051C222.771 40.8779 226.098 35.5176 228.702 31.3163C231.451 27.1151 234.2 20.5958 234.923 16.8292C239.263 -6.06057 241.288 -10.2618 252.572 -17.2157C258.504 -21.1272 259.082 -21.9965 262.265 -33.5862C265.448 -44.8862 266.026 -46.0452 269.788 -46.7695C276.876 -48.2183 279.77 -52.7093 281.216 -65.8926C281.94 -72.4118 282.952 -78.3516 283.531 -79.2208C283.965 -80.09 284.833 -84.1465 285.556 -88.2029C289.173 -111.962 292.066 -125.58 295.104 -131.954C296.985 -136.011 299.155 -143.689 299.878 -149.049C300.602 -154.264 301.614 -159.19 302.048 -160.059C303.206 -161.798 298.287 -172.663 293.658 -178.893C290.764 -182.804 289.896 -185.702 289.896 -191.207C289.896 -206.128 291.777 -205.114 262.41 -205.114H236.804L234.778 -194.249Z" fill="#FAEADE"/>
<path d="M50.3312 -137.894C48.4505 -136.445 46.7145 -136.3 43.6765 -137.314C41.3619 -138.184 36.8772 -138.329 33.4052 -137.894C30.0779 -137.314 24.1465 -136.735 20.2405 -136.445C15.7559 -136.156 12.4285 -134.997 11.4159 -133.548C10.4032 -132.244 7.79921 -131.23 5.48454 -131.23C-0.0127895 -131.23 -5.79946 -127.898 -17.6621 -118.191C-33.1415 -105.298 -37.0475 -101.241 -37.0475 -98.1991C-37.0475 -96.4606 -37.6261 -94.7222 -38.4941 -94.2876C-39.3621 -93.8529 -39.9408 -91.3901 -39.9408 -89.0722C-39.9408 -84.4363 -45.0041 -73.2811 -47.1741 -73.2811C-49.0548 -73.2811 -49.7781 -69.9491 -51.5141 -54.4478C-52.8161 -42.5683 -53.6841 -40.1055 -57.1561 -36.3388C-64.1001 -28.8055 -65.9808 -24.4594 -66.9935 -13.594C-67.4275 -7.7991 -69.3081 0.313722 -71.1888 4.37013C-74.5161 12.0483 -74.6608 18.2778 -72.0568 33.0547C-70.7548 40.0086 -70.0315 40.8778 -62.6535 44.9342C-59.4708 46.6727 -58.7475 47.9765 -58.7475 52.7573C-58.7475 55.7996 -59.4708 58.8419 -60.1941 59.2765C-60.9175 59.7112 -61.6408 61.3047 -61.6408 62.7535C-61.6408 64.2022 -62.9428 67.0996 -64.5341 69.1278C-68.7295 74.3432 -68.1508 79.7035 -63.0875 84.9188C-60.0495 87.8163 -58.7475 90.5688 -58.7475 93.756C-58.7475 99.406 -57.3008 101.724 -52.8161 104.042C-50.3568 105.201 -49.0548 107.374 -48.6208 110.851C-47.4635 118.819 -36.3241 132.437 -30.8268 132.437C-28.9461 132.437 -25.1848 134.175 -22.4361 136.203C-17.9515 139.68 -16.6495 139.825 -7.10146 139.246C7.94387 138.087 8.37788 138.666 7.50988 156.486C6.93121 165.612 5.91854 172.421 4.32721 175.174C3.02521 177.492 2.01254 180.244 2.01254 181.114C2.01254 181.838 0.565873 185.46 -1.17013 189.082C-3.91879 194.442 -4.49746 198.933 -5.22079 216.897C-5.79946 230.225 -6.81213 238.918 -7.82479 239.932C-10.7181 242.829 -9.85013 250.507 -6.23346 253.839C-4.35279 255.578 -1.89346 257.027 -0.591461 257.027C0.565873 257.027 4.18254 259.055 7.22054 261.518C10.9819 264.415 13.7305 265.574 15.7559 264.994C17.3472 264.56 20.6745 263.835 23.1339 263.256C27.7632 262.532 27.7632 262.532 30.0779 270.934C34.5625 287.015 33.8392 286.291 49.7525 288.753C56.8412 289.912 58.1432 289.768 61.0365 287.015C62.7725 285.421 64.2192 283.248 64.2192 282.234C64.2192 281.22 65.8105 278.468 67.8359 276.15C69.8612 273.832 73.3332 268.182 75.7925 263.546C80.4219 254.853 85.3405 247.03 87.9445 244.712C90.6932 242.25 95.4672 234.861 98.9392 228.052C100.675 224.43 103.569 219.939 105.305 217.911C110.368 212.261 115.142 199.368 116.01 189.371C116.878 178.651 113.406 164.453 108.343 157.789C105.449 154.023 101.977 143.447 96.1905 121.137C94.5992 115.487 91.1272 111.286 85.6299 108.388C75.7925 103.318 75.0692 97.6676 81.1452 72.315C86.0639 51.4535 87.3659 20.7406 83.6045 13.3522C82.3025 10.7445 75.6479 3.06629 68.7039 -3.59782L56.2625 -15.767L55.8285 -26.0529C55.2499 -37.6427 57.8539 -43.8722 67.1125 -54.0132C79.8432 -67.6311 85.9192 -82.4081 85.9192 -99.0683C85.9192 -108.34 85.1959 -111.382 82.3025 -116.598C80.2772 -119.93 78.6859 -123.986 78.6859 -125.435C78.6859 -126.884 75.9372 -130.216 72.6099 -132.968C65.3765 -138.763 54.8159 -141.081 50.3312 -137.894Z" fill="#FAEADE"/>
<path d="M452.649 -36.9181C448.743 -35.904 445.271 -33.5861 441.51 -29.3848C438.472 -26.0527 436.013 -22.8656 436.013 -22.2861C436.013 -21.7066 432.107 -14.7527 427.333 -6.92966C422.559 1.03828 418.653 8.137 418.653 9.00623C418.653 10.5998 409.394 17.9883 407.224 17.9883C404.765 17.9883 403.029 22.7691 402.016 32.4755C401.003 41.0229 399.557 47.687 395.361 60.8703C394.638 63.3332 393.915 72.4601 393.77 81.1524C393.625 99.8409 392.323 103.752 382.631 114.618C372.938 125.483 371.636 128.815 368.743 149.532C365.415 173.001 366.283 187.054 371.636 197.774C373.951 202.12 376.265 207.481 376.844 209.943C377.423 212.261 380.027 219.795 382.486 226.604C385.09 233.413 387.983 242.105 389.141 246.161C394.204 265.429 396.808 277.019 396.953 280.931C397.097 287.305 398.833 289.478 402.884 288.174C409.973 286.001 413.011 280.931 418.074 263.546C420.823 253.84 428.779 243.988 433.843 243.988C435.579 243.988 438.038 245.147 439.195 246.451C444.693 252.825 445.416 256.013 445.561 280.351C445.85 301.647 446.284 305.124 448.888 310.34C452.36 317.149 455.832 319.611 459.304 317.873C460.606 317.149 464.512 311.788 467.984 305.993C471.456 300.199 475.362 294.259 476.664 292.81C477.966 291.361 481.438 284.118 484.476 276.874C487.369 269.486 490.697 261.373 491.854 258.765C493.011 256.158 493.879 251.232 493.879 247.755C493.879 243.409 494.747 240.801 496.773 238.918C498.364 237.469 499.811 236.6 500.1 236.89C505.742 244.713 506.031 246.017 506.465 270.065C506.755 293.245 509.069 308.601 513.988 321.205C514.856 323.523 515.579 327.869 515.579 331.056C515.579 338.01 521.366 347.861 526.574 349.745C528.599 350.614 531.782 350.759 533.807 350.324C539.015 349.02 545.959 339.893 545.959 334.388C545.959 331.925 547.261 325.406 548.853 319.901C550.589 314.396 552.614 307.297 553.482 304.11C555.073 298.75 559.847 289.043 561.873 287.45C562.451 287.015 564.043 283.828 565.489 280.206C567.804 274.556 568.093 269.051 568.238 238.918C568.383 212.986 568.961 203.279 570.408 200.672C572.723 196.47 572.867 136.349 570.553 129.974C569.685 127.801 566.647 122.586 563.898 118.529C559.269 111.865 557.967 110.996 551.023 109.402C546.683 108.388 542.777 106.94 542.343 106.215C536.99 97.8126 513.265 131.278 508.346 154.168C507.333 158.514 505.308 164.164 503.861 166.627C501.547 170.538 501.113 174.16 501.113 193.863C501.113 206.322 500.534 216.463 499.955 216.463C498.364 216.463 495.471 199.223 494.458 183.866C493.879 174.884 494.313 167.786 495.76 160.832C497.641 151.995 497.785 149.097 495.76 136.204C494.603 128.091 492.433 119.254 490.841 116.356C487.369 109.547 487.369 107.229 491.131 99.4062C493.879 94.046 494.169 91.728 493.156 83.4703C492.577 78.1101 491.854 65.2165 491.565 54.9306C490.841 24.7973 487.08 1.03828 480.136 -18.954C474.349 -35.6143 472.035 -38.5117 464.512 -38.3668C461.185 -38.222 455.832 -37.6425 452.649 -36.9181Z" fill="#FAEADE"/>
<path d="M246.497 110.995C246.497 112.01 244.471 116.79 242.157 121.571C239.842 126.352 237.817 130.988 237.817 131.712C237.817 132.581 235.936 134.899 233.622 136.927C230.873 139.39 227.256 146.054 222.916 156.92C214.381 178.216 211.343 180.679 201.94 173.435C197.744 170.393 196.442 169.958 194.272 171.262C192.826 172.276 190.8 173.001 189.788 173.001C187.184 173.001 179.95 180.534 179.95 183.286C179.95 184.735 179.372 186.039 178.504 186.329C176.478 187.053 171.415 202.12 171.126 208.639C170.836 214.579 167.509 226.024 162.88 236.744C160.854 241.67 159.986 247.899 159.408 261.662C158.974 271.803 157.961 280.93 157.238 281.944C156.37 282.958 155.212 286.725 154.634 290.347C153.621 297.445 152.753 300.922 148.558 314.25C146.243 321.929 145.954 327.868 146.243 368.867C146.388 408.707 146.822 415.806 148.992 421.745C152.753 432.031 153.91 432.9 165.05 432.9L174.887 433.045L175.755 441.013C177.202 452.748 176.189 455.5 170.836 455.5C166.062 455.5 158.25 461.585 158.25 465.207C158.25 466.366 156.37 471.291 154.055 476.217C147.4 490.849 146.098 495.775 147.834 501.715C151.162 513.304 152.464 527.212 150.728 533.152C148.558 540.395 145.375 544.162 141.758 543.583C138.865 543.148 138.72 541.989 138.286 524.459C137.997 511.566 138.576 503.453 140.022 498.383C141.18 494.326 142.482 482.447 143.06 472.161C143.639 461.73 144.652 452.603 145.52 451.589C146.243 450.72 146.677 447.677 146.388 445.07C146.098 441.448 145.23 440.144 142.916 439.854C141.18 439.565 139.154 437.826 138.286 435.798C137.129 433.48 135.393 432.321 133.078 432.321C128.738 432.321 125.7 438.985 127.002 445.649C128.015 451.154 124.543 461.585 119.48 467.815C116.586 471.291 116.152 473.03 117.02 477.956C117.454 481.143 117.888 486.213 117.744 489.256C117.744 492.298 118.612 498.527 119.914 503.018C122.807 512.87 121.939 521.127 116.731 532.138C114.706 536.484 112.825 543.293 112.536 547.349C112.391 551.406 111.668 558.07 111.234 561.981C110.366 568.5 110.655 569.515 113.982 572.702C118.901 577.338 119.19 586.32 114.706 591.1C110.076 596.026 109.064 603.849 110.944 618.481L112.68 631.52L118.612 633.548C123.964 635.431 125.122 635.286 131.198 632.824C139.154 629.491 141.035 626.015 139.878 616.308C139.01 609.065 139.154 608.775 142.482 609.354C145.664 609.789 145.954 610.513 146.388 619.93C146.822 630.071 149.136 635.141 153.476 635.141C154.489 635.141 157.816 633.548 160.854 631.809C169.1 626.594 174.887 625.87 177.346 629.781C183.567 639.488 184.724 646.586 184.869 673.532C185.014 693.525 185.448 700.479 187.039 702.217C189.209 704.97 199.914 705.549 204.254 703.376C205.556 702.652 209.752 700.768 213.513 699.03C218.142 696.857 222.482 693.09 226.533 687.875C235.792 675.995 236.949 677.154 237.962 699.609C239.119 724.672 242.157 735.248 249.679 740.608C252.862 742.926 256.623 749.88 256.623 753.647C256.623 755.095 254.309 760.745 251.56 766.395C247.075 775.377 246.497 777.55 246.641 787.981C246.641 803.482 248.377 812.754 251.849 817.39C254.453 820.722 255.755 821.302 261.108 820.867C268.486 820.432 280.638 813.768 284.833 808.118C286.425 805.945 290.041 801.309 292.935 797.832C301.036 787.981 304.363 780.158 304.363 770.886C304.363 766.395 304.942 762.484 305.665 762.049C306.244 761.615 307.257 758.572 307.691 755.385C308.125 751.763 310.15 747.707 312.899 744.52C316.371 740.608 317.383 738 317.383 733.509C317.383 727.57 321.289 722.209 325.629 722.065C326.642 722.065 330.114 716.559 333.441 709.75C339.083 698.016 339.662 697.436 344.147 697.436C355.865 697.436 362.809 691.207 364.255 679.617C365.268 672.229 365.702 671.215 369.174 670.345C371.344 669.911 373.514 668.752 374.093 667.883C374.671 667.013 375.539 666.724 375.973 667.303C376.407 667.738 374.816 671.07 372.357 674.691C370.042 678.313 368.017 682.659 368.017 684.398C368.017 686.281 365.123 692.511 361.507 698.595C357.022 705.984 354.997 711.054 354.997 714.676C354.852 717.574 353.695 722.499 352.103 725.686C349.065 731.916 348.342 742.781 350.657 748.721C352.248 752.922 356.733 755.675 359.915 754.516C362.953 753.357 368.017 744.954 368.017 741.188C368.017 739.449 370.765 735.393 374.237 731.916C380.747 725.397 383.062 720.181 387.691 701.058C389.427 693.815 391.453 689.468 394.78 685.847C399.554 680.631 402.303 674.836 403.026 668.462C403.315 665.854 404.473 664.695 407.221 664.406C411.272 663.971 413.876 659.19 416.914 646.297C420.386 632.099 418.071 623.697 411.127 625.435C407.077 626.449 402.592 634.852 401.435 644.124L400.567 649.918L396.516 646.731C393.044 643.979 392.176 643.834 390.151 645.572C388.849 646.586 386.968 649.629 385.811 652.091C382.483 660.204 381.037 657.597 381.037 643.399C381.037 632.824 380.458 628.767 378.143 624.276C376.552 621.089 375.25 615.729 375.25 611.962C375.105 599.503 372.646 587.768 368.885 581.684C365.557 576.613 365.268 575.165 366.859 572.412C367.872 570.384 368.451 562.706 368.451 551.116C368.306 531.993 367.293 528.226 357.89 512C356.299 509.248 354.997 505.481 354.997 503.743C354.997 498.672 350.512 490.559 347.185 489.69C343.279 488.531 339.662 492.877 337.492 500.845C336.624 504.177 334.454 509.683 332.573 513.015C330.693 516.347 328.812 521.127 328.233 523.59C327.655 525.908 326.642 528.226 325.919 528.661C325.195 529.24 324.617 531.413 324.617 533.586C324.617 535.904 323.749 538.512 322.591 539.381C321.434 540.395 320.132 544.452 319.553 548.653C318.975 552.709 317.962 557.056 317.239 558.359C316.66 559.518 315.647 562.995 315.213 565.893C314.635 569.804 312.175 573.861 306.678 579.656C302.483 584.291 297.564 591.1 295.683 595.012C290.765 605.008 288.161 607.036 282.808 604.863C278.179 602.835 276.877 599.068 276.877 587.334C276.877 580.815 280.927 565.024 284.833 556.186C285.846 553.724 288.45 548.218 290.331 543.872C292.356 539.381 295.539 533.441 297.419 530.689C300.891 525.474 306.389 509.827 310.873 491.718C312.32 486.503 314.056 481.288 315.069 480.129C320.711 472.885 321.145 469.408 317.528 451.879C316.805 447.822 316.081 438.261 316.081 430.438C315.937 415.516 314.49 410.445 308.125 403.636C305.521 400.739 304.942 397.842 304.363 384.803C303.64 370.461 303.351 369.302 300.602 368.867C296.407 368.288 286.569 378.284 282.085 387.7C278.757 394.799 272.392 403.347 270.367 403.347C269.065 403.347 269.643 397.552 271.669 390.598C272.826 386.831 274.562 380.602 275.719 376.69C277.021 371.475 279.191 368.143 283.821 364.231C289.752 358.871 289.897 358.581 289.897 349.454C289.897 344.384 290.765 337.285 291.922 333.663C293.079 330.186 294.381 320.77 294.815 312.657C295.249 304.544 296.262 295.127 297.13 291.506C300.168 279.771 297.13 250.362 291.199 233.122C289.318 227.907 288.595 227.327 283.965 226.893C279.191 226.458 278.613 225.879 276.732 220.374C275.719 217.042 274.417 206.176 273.983 196.325C273.405 181.548 272.826 178.071 270.801 176.767C268.92 175.608 267.618 175.898 264.869 178.506C262.989 180.244 261.253 181.693 260.819 181.693C260.529 181.693 260.24 173.58 260.24 163.729C260.24 146.344 260.095 145.765 256.623 142.867C253.296 140.26 253.007 138.811 252.862 128.235C252.717 121.716 252.139 114.907 251.705 112.879C250.837 109.257 246.497 107.808 246.497 110.995Z" fill="#FAEADE"/>
<path d="M34.2739 393.351C26.1725 396.538 21.9772 401.609 20.0965 410.591C19.5179 413.343 18.5052 416.241 17.9265 417.11C17.3479 417.834 16.3352 421.891 15.7565 425.947C14.7439 434.35 16.6245 437.247 23.2792 436.378C27.0405 435.943 27.3299 436.233 26.8959 441.014C24.7259 467.091 24.5812 465.932 28.1979 465.352C31.6699 464.918 41.6519 450.286 43.3879 442.897C43.9665 440.724 47.0045 434.06 50.0425 427.975C57.4205 413.633 59.8798 406.824 59.8798 399.436C59.8798 392.771 59.5905 392.627 48.3065 391.178C43.6772 390.598 39.6265 391.323 34.2739 393.351Z" fill="#FAEADE"/>
<path d="M633.915 414.068C631.601 416.241 629.141 422.036 627.839 428.12C627.261 430.873 625.814 432.177 623.065 432.756C616.411 434.205 615.253 435.799 614.385 444.781C613.373 454.777 611.492 457.384 601.51 462.165C597.459 464.049 593.119 466.801 591.673 468.395C588.056 472.306 583.571 486.359 583.571 493.747C583.571 502.874 580.823 514.754 577.64 520.259C575.325 524.025 574.891 527.213 575.181 539.092C575.325 550.392 574.747 554.883 572.432 561.258C568.237 572.702 565.777 598.779 566.501 624.277C567.224 651.513 568.381 653.975 580.099 653.975C584.295 653.975 588.201 654.555 588.635 655.424C589.937 657.452 596.881 657.163 599.919 654.7C606.139 650.064 614.675 631.375 615.977 619.496C617.134 608.775 620.172 603.125 627.116 598.49C631.167 595.737 632.324 593.854 633.626 586.9C635.507 577.483 638.545 571.978 642.74 570.674C644.621 570.095 645.923 568.067 646.357 565.169C646.791 562.561 647.803 555.897 648.671 550.392C652.288 526.488 657.351 500.556 659.666 493.168C663.283 481.288 663.861 472.161 661.113 466.511C659.811 463.759 658.798 461.006 658.798 460.137C658.798 459.413 657.785 457.964 656.628 456.95C655.181 455.791 654.458 452.459 654.458 446.664C654.458 439.42 653.879 437.682 650.552 434.64C647.948 432.177 645.923 427.976 644.331 421.891C642.595 414.647 641.438 412.619 638.979 412.329C637.387 412.04 635.073 412.909 633.915 414.068Z" fill="#FAEADE"/>
<path d="M73.6232 435.943C71.3085 437.102 67.5472 438.261 65.3772 438.695C62.3392 439.42 60.7478 441.448 57.7098 447.967C55.6845 452.458 52.9358 458.108 51.9232 460.571C50.7658 462.889 49.4638 467.235 49.0298 469.988C48.5958 472.74 46.7152 477.956 44.8345 481.577C32.9718 504.177 33.9845 500.845 33.8398 522.866C33.8398 549.088 37.7458 561.257 46.4258 561.257C51.0552 561.257 55.6845 550.826 56.6972 537.643C57.4205 528.081 57.5652 527.647 66.5345 517.65C71.4532 512 78.1078 503.743 81.1458 499.252L86.6432 490.994L87.0772 466.076L87.6558 441.158L83.8945 437.391C79.6992 433.335 79.5545 433.19 73.6232 435.943Z" fill="#FAEADE"/>
<path d="M-23.162 672.229C-23.596 673.533 -24.03 676.43 -24.03 678.748C-24.03 681.935 -24.7533 682.95 -26.9233 682.95C-28.5147 682.95 -30.2507 684.108 -30.8293 685.412C-31.2633 686.861 -32.8547 690.628 -34.1567 693.815C-35.6033 697.002 -37.1947 703.666 -37.6287 708.737C-38.2073 713.662 -40.088 722.644 -42.1133 728.584C-47.3213 744.81 -47.6107 747.997 -45.0067 762.049C-41.824 779.869 -40.3773 783.635 -36.3267 785.808C-34.3013 786.823 -32.71 788.271 -32.71 788.851C-32.71 789.43 -31.6973 790.879 -30.54 792.183C-27.936 794.646 -20.992 793.197 -16.652 789.285C-14.1927 787.112 -13.7587 787.112 -10.142 790.01C-7.972 791.748 -5.802 793.052 -5.07866 793.052C-2.47466 793.052 0.563338 788.126 0.563338 783.78C0.563338 781.317 1.142 778.565 1.72067 777.696C2.444 776.971 4.18 773.205 5.62667 769.293C8.66467 760.891 7.94134 749.591 3.60134 740.464C2.15467 737.132 -0.015329 730.612 -0.883329 725.832C-1.896 721.196 -3.77666 713.517 -5.368 709.026C-6.81466 704.535 -8.26133 695.843 -8.55066 690.048C-8.98466 681.356 -9.708 678.314 -12.4567 674.547C-16.218 669.476 -21.7153 668.317 -23.162 672.229Z" fill="#FAEADE"/>
<path d="M401.872 729.598C398.978 732.206 392.902 735.682 388.418 737.276C382.197 739.594 379.593 741.622 376.7 745.968C371.926 753.502 368.599 764.802 366.863 779.289C366.139 785.663 363.969 796.384 361.944 803.193C357.749 817.535 355.434 826.372 354.277 834.05C353.119 841.294 346.32 857.665 341.546 864.618C337.351 870.558 336.917 873.745 338.942 880.844C339.665 883.307 339.665 886.204 339.087 887.218C337.206 890.116 341.691 901.126 345.597 903.154C349.937 905.472 352.83 903.589 355.579 896.78L357.459 892.289L360.642 898.518C364.114 905.327 365.416 905.762 369.467 901.706C371.347 899.822 374.241 898.808 377.568 898.808C383.065 898.808 385.669 896.78 397.242 882.438C401.438 877.367 404.476 875.339 410.696 873.311C427.478 868.095 435.579 859.982 438.038 845.93C438.617 842.743 441.076 834.34 443.536 827.241C448.744 812.32 449.322 798.122 445.272 792.038C443.391 788.995 443.246 787.402 444.693 782.331C447.008 774.074 443.68 765.961 437.894 765.236C434.711 764.947 433.698 763.932 433.409 760.89C432.83 755.965 428.201 754.226 424.584 757.413C423.138 758.717 421.546 759.297 421.112 758.717C420.534 758.282 420.1 753.067 420.1 747.127C420.1 736.407 418.219 731.047 413.011 726.7C409.684 723.948 407.658 724.527 401.872 729.598Z" fill="#FAEADE"/>
<path d="M305.812 795.515C294.528 805.946 290.043 812.9 289.03 821.737C288.596 825.503 286.571 832.602 284.69 837.673C280.35 848.828 280.35 854.333 284.256 859.983C286.86 863.605 287.873 864.039 291.779 863.17C295.251 862.446 296.553 862.88 298.578 865.488C301.906 869.834 305.378 867.806 310.152 859.114C312.032 855.492 314.202 852.45 314.781 852.45C315.504 852.45 315.938 851.58 315.938 850.566C315.938 849.697 316.951 846.945 318.108 844.771C319.266 842.598 321.291 836.369 322.593 831.009C323.895 825.648 326.499 816.232 328.524 810.002C332.864 796.819 331.852 791.603 325.342 791.603C323.316 791.603 321.291 790.589 320.857 789.43C319.266 785.374 315.07 787.257 305.812 795.515Z" fill="#FAEADE"/>
</g>
</g>
</g>
<defs>
<filter id="filter0_f_2229_2354" x="-107.609" y="-41.8428" width="790.203" height="1057.07" filterUnits="userSpaceOnUse" color-interpolation-filters="sRGB">
<feFlood flood-opacity="0" result="BackgroundImageFix"/>
<feBlend mode="normal" in="SourceGraphic" in2="BackgroundImageFix" result="shape"/>
<feGaussianBlur stdDeviation="75" result="effect1_foregroundBlur_2229_2354"/>
</filter>
<clipPath id="clip0_2229_2354">
<rect width="593" height="850" fill="white"/>
</clipPath>
<clipPath id="clip1_2229_2354">
<rect width="593" height="850" fill="white"/>
</clipPath>
<clipPath id="clip2_2229_2354">
<rect width="1302" height="1130" fill="white" transform="translate(-168.695 -205.114)"/>
</clipPath>
</defs>
</svg>
