<svg width="593" height="850" viewBox="0 0 593 850" fill="none" xmlns="http://www.w3.org/2000/svg">
<g clip-path="url(#clip0_1715_230)">
<rect width="593" height="850" fill="#D7C5A3"/>
<g filter="url(#filter0_f_1715_230)">
<rect x="71.5391" y="105.688" width="433.121" height="762" rx="216.56" fill="#F2ECE1"/>
</g>
<g opacity="0.3" clip-path="url(#clip1_1715_230)">
<path d="M234.778 -194.248C232.608 -181.789 232.753 -181.934 213.946 -172.518C203.386 -167.157 202.084 -165.998 198.322 -158.9C195.574 -153.684 193.838 -147.02 192.825 -139.342C190.51 -120.654 188.919 -114.279 184.868 -107.76C181.107 -101.965 180.962 -100.516 180.818 -82.6971C180.673 -65.3125 180.384 -63.2843 176.912 -57.1997C174.163 -52.2741 172.861 -47.3484 172.138 -38.3664C171.559 -31.7023 170.546 -25.6177 169.823 -24.8933C167.364 -22.4305 168.087 27.2605 170.546 36.0977C173.44 45.8041 176.478 47.8323 189.353 48.7016C194.995 49.1362 200.782 50.2952 202.373 51.1644C206.279 53.6272 217.852 48.7016 221.324 43.0516C222.771 40.8785 226.098 35.5182 228.702 31.317C231.451 27.1157 234.2 20.5964 234.923 16.8298C239.263 -6.05996 241.288 -10.2612 252.572 -17.2151C258.504 -21.1266 259.082 -21.9959 262.265 -33.5856C265.448 -44.8856 266.026 -46.0446 269.788 -46.7689C276.876 -48.2177 279.77 -52.7087 281.216 -65.892C281.94 -72.4112 282.952 -78.351 283.531 -79.2202C283.965 -80.0894 284.833 -84.1458 285.556 -88.2023C289.173 -111.961 292.066 -125.579 295.104 -131.954C296.985 -136.01 299.155 -143.688 299.878 -149.048C300.602 -154.264 301.614 -159.189 302.048 -160.059C303.206 -161.797 298.287 -172.662 293.658 -178.892C290.764 -182.804 289.896 -185.701 289.896 -191.206C289.896 -206.128 291.777 -205.114 262.41 -205.114H236.804L234.778 -194.248Z" fill="#FAEADE"/>
<path d="M50.3312 -137.893C48.4505 -136.445 46.7145 -136.3 43.6765 -137.314C41.3619 -138.183 36.8772 -138.328 33.4052 -137.893C30.0779 -137.314 24.1465 -136.734 20.2405 -136.445C15.7559 -136.155 12.4285 -134.996 11.4159 -133.547C10.4032 -132.243 7.79921 -131.229 5.48454 -131.229C-0.0127869 -131.229 -5.79946 -127.897 -17.6621 -118.191C-33.1415 -105.297 -37.0475 -101.241 -37.0475 -98.1984C-37.0475 -96.4599 -37.6261 -94.7214 -38.4941 -94.2868C-39.3621 -93.8522 -39.9408 -91.3894 -39.9408 -89.0714C-39.9408 -84.4355 -45.0041 -73.2804 -47.1741 -73.2804C-49.0548 -73.2804 -49.7781 -69.9484 -51.5141 -54.4471C-52.8161 -42.5676 -53.6841 -40.1048 -57.1561 -36.3381C-64.1001 -28.8048 -65.9808 -24.4586 -66.9935 -13.5932C-67.4275 -7.79837 -69.3081 0.314453 -71.1888 4.37085C-74.5161 12.0491 -74.6608 18.2786 -72.0568 33.0555C-70.7548 40.0093 -70.0315 40.8786 -62.6535 44.935C-59.4708 46.6734 -58.7475 47.9773 -58.7475 52.758C-58.7475 55.8004 -59.4708 58.8427 -60.1941 59.2773C-60.9175 59.7119 -61.6408 61.3055 -61.6408 62.7542C-61.6408 64.2029 -62.9428 67.1003 -64.5341 69.1286C-68.7295 74.3439 -68.1508 79.7042 -63.0875 84.9196C-60.0495 87.817 -58.7475 90.5696 -58.7475 93.7568C-58.7475 99.4068 -57.3008 101.725 -52.8161 104.043C-50.3568 105.202 -49.0548 107.375 -48.6208 110.852C-47.4635 118.82 -36.3241 132.438 -30.8268 132.438C-28.9461 132.438 -25.1848 134.176 -22.4361 136.204C-17.9515 139.681 -16.6495 139.826 -7.10146 139.246C7.94387 138.088 8.37788 138.667 7.50988 156.486C6.93121 165.613 5.91854 172.422 4.32721 175.175C3.02521 177.493 2.01254 180.245 2.01254 181.114C2.01254 181.839 0.565872 185.461 -1.17013 189.082C-3.91879 194.443 -4.49746 198.934 -5.22079 216.898C-5.79946 230.226 -6.81213 238.918 -7.82479 239.932C-10.7181 242.83 -9.85013 250.508 -6.23346 253.84C-4.35279 255.579 -1.89346 257.027 -0.591461 257.027C0.565872 257.027 4.18254 259.055 7.22054 261.518C10.9819 264.416 13.7305 265.575 15.7559 264.995C17.3472 264.561 20.6745 263.836 23.1339 263.257C27.7632 262.532 27.7632 262.532 30.0779 270.935C34.5625 287.016 33.8392 286.291 49.7525 288.754C56.8412 289.913 58.1432 289.768 61.0365 287.016C62.7725 285.422 64.2192 283.249 64.2192 282.235C64.2192 281.221 65.8105 278.468 67.8359 276.15C69.8612 273.832 73.3332 268.182 75.7925 263.546C80.4219 254.854 85.3405 247.031 87.9445 244.713C90.6932 242.25 95.4672 234.862 98.9392 228.053C100.675 224.431 103.569 219.94 105.305 217.912C110.368 212.262 115.142 199.368 116.01 189.372C116.878 178.652 113.406 164.454 108.343 157.79C105.449 154.023 101.977 143.448 96.1905 121.138C94.5992 115.488 91.1272 111.286 85.6299 108.389C75.7925 103.318 75.0692 97.6683 81.1452 72.3157C86.0639 51.4542 87.3659 20.7414 83.6045 13.3529C82.3025 10.7452 75.6479 3.06702 68.7039 -3.59708L56.2625 -15.7663L55.8285 -26.0522C55.2499 -37.642 57.8539 -43.8714 67.1125 -54.0125C79.8432 -67.6304 85.9192 -82.4073 85.9192 -99.0676C85.9192 -108.339 85.1959 -111.382 82.3025 -116.597C80.2772 -119.929 78.6859 -123.986 78.6859 -125.434C78.6859 -126.883 75.9372 -130.215 72.6099 -132.968C65.3765 -138.762 54.8159 -141.08 50.3312 -137.893Z" fill="#FAEADE"/>
<path d="M452.649 -36.9178C448.743 -35.9037 445.271 -33.5857 441.51 -29.3844C438.472 -26.0524 436.013 -22.8652 436.013 -22.2857C436.013 -21.7062 432.107 -14.7524 427.333 -6.92929C422.559 1.03864 418.653 8.13736 418.653 9.00659C418.653 10.6002 409.394 17.9886 407.224 17.9886C404.765 17.9886 403.029 22.7694 402.016 32.4758C401.003 41.0233 399.557 47.6874 395.361 60.8707C394.638 63.3335 393.915 72.4604 393.77 81.1528C393.625 99.8412 392.323 103.753 382.631 114.618C372.938 125.484 371.636 128.816 368.743 149.532C365.415 173.001 366.283 187.054 371.636 197.775C373.951 202.121 376.265 207.481 376.844 209.944C377.423 212.262 380.027 219.795 382.486 226.604C385.09 233.413 387.983 242.105 389.141 246.162C394.204 265.43 396.808 277.019 396.953 280.931C397.097 287.305 398.833 289.478 402.884 288.175C409.973 286.001 413.011 280.931 418.074 263.546C420.823 253.84 428.779 243.989 433.843 243.989C435.579 243.989 438.038 245.148 439.195 246.451C444.693 252.826 445.416 256.013 445.561 280.351C445.85 301.648 446.284 305.125 448.888 310.34C452.36 317.149 455.832 319.612 459.304 317.873C460.606 317.149 464.512 311.789 467.984 305.994C471.456 300.199 475.362 294.259 476.664 292.81C477.966 291.362 481.438 284.118 484.476 276.875C487.369 269.486 490.697 261.373 491.854 258.766C493.011 256.158 493.879 251.232 493.879 247.755C493.879 243.409 494.747 240.801 496.773 238.918C498.364 237.469 499.811 236.6 500.1 236.89C505.742 244.713 506.031 246.017 506.465 270.066C506.755 293.245 509.069 308.601 513.988 321.205C514.856 323.523 515.579 327.869 515.579 331.057C515.579 338.01 521.366 347.862 526.574 349.745C528.599 350.614 531.782 350.759 533.807 350.325C539.015 349.021 545.959 339.894 545.959 334.389C545.959 331.926 547.261 325.407 548.853 319.901C550.589 314.396 552.614 307.298 553.482 304.11C555.073 298.75 559.847 289.044 561.873 287.45C562.451 287.016 564.043 283.828 565.489 280.207C567.804 274.557 568.093 269.051 568.238 238.918C568.383 212.986 568.961 203.28 570.408 200.672C572.723 196.471 572.867 136.349 570.553 129.975C569.685 127.801 566.647 122.586 563.898 118.53C559.269 111.866 557.967 110.996 551.023 109.403C546.683 108.389 542.777 106.94 542.343 106.216C536.99 97.813 513.265 131.278 508.346 154.168C507.333 158.514 505.308 164.164 503.861 166.627C501.547 170.539 501.113 174.16 501.113 193.863C501.113 206.322 500.534 216.463 499.955 216.463C498.364 216.463 495.471 199.223 494.458 183.867C493.879 174.885 494.313 167.786 495.76 160.832C497.641 151.995 497.785 149.098 495.76 136.204C494.603 128.091 492.433 119.254 490.841 116.357C487.369 109.548 487.369 107.23 491.131 99.4066C493.879 94.0464 494.169 91.7284 493.156 83.4707C492.577 78.1104 491.854 65.2169 491.565 54.931C490.841 24.7976 487.08 1.03864 480.136 -18.9536C474.349 -35.6139 472.035 -38.5114 464.512 -38.3665C461.185 -38.2216 455.832 -37.6421 452.649 -36.9178Z" fill="#FAEADE"/>
<path d="M246.497 110.997C246.497 112.011 244.471 116.791 242.157 121.572C239.842 126.353 237.817 130.989 237.817 131.713C237.817 132.582 235.936 134.9 233.621 136.929C230.873 139.391 227.256 146.055 222.916 156.921C214.381 178.217 211.343 180.68 201.94 173.436C197.744 170.394 196.442 169.959 194.272 171.263C192.826 172.277 190.8 173.002 189.788 173.002C187.184 173.002 179.95 180.535 179.95 183.288C179.95 184.736 179.372 186.04 178.504 186.33C176.478 187.054 171.415 202.121 171.126 208.64C170.836 214.58 167.509 226.025 162.88 236.745C160.854 241.671 159.986 247.9 159.408 261.663C158.974 271.804 157.961 280.931 157.238 281.945C156.37 282.959 155.212 286.726 154.634 290.348C153.621 297.446 152.753 300.923 148.558 314.252C146.243 321.93 145.954 327.87 146.243 368.868C146.388 408.708 146.822 415.807 148.992 421.746C152.753 432.032 153.91 432.902 165.05 432.902L174.887 433.046L175.755 441.014C177.202 452.749 176.189 455.502 170.836 455.502C166.062 455.502 158.25 461.586 158.25 465.208C158.25 466.367 156.37 471.293 154.055 476.218C147.4 490.85 146.098 495.776 147.834 501.716C151.162 513.305 152.464 527.213 150.728 533.153C148.558 540.396 145.375 544.163 141.758 543.584C138.865 543.149 138.72 541.99 138.286 524.461C137.997 511.567 138.576 503.454 140.022 498.384C141.18 494.327 142.482 482.448 143.06 472.162C143.639 461.731 144.652 452.604 145.52 451.59C146.243 450.721 146.677 447.679 146.388 445.071C146.098 441.449 145.23 440.145 142.916 439.855C141.18 439.566 139.154 437.827 138.286 435.799C137.129 433.481 135.393 432.322 133.078 432.322C128.738 432.322 125.7 438.986 127.002 445.65C128.015 451.155 124.543 461.586 119.48 467.816C116.586 471.293 116.152 473.031 117.02 477.957C117.454 481.144 117.888 486.214 117.744 489.257C117.744 492.299 118.612 498.528 119.914 503.02C122.807 512.871 121.939 521.129 116.731 532.139C114.706 536.485 112.825 543.294 112.536 547.35C112.391 551.407 111.668 558.071 111.234 561.982C110.366 568.502 110.655 569.516 113.982 572.703C118.901 577.339 119.19 586.321 114.706 591.102C110.076 596.027 109.064 603.85 110.944 618.482L112.68 631.521L118.612 633.549C123.964 635.432 125.122 635.287 131.198 632.825C139.154 629.493 141.035 626.016 139.878 616.309C139.01 609.066 139.154 608.776 142.482 609.355C145.664 609.79 145.954 610.514 146.388 619.931C146.822 630.072 149.136 635.143 153.476 635.143C154.489 635.143 157.816 633.549 160.854 631.811C169.1 626.595 174.887 625.871 177.346 629.782C183.567 639.489 184.724 646.587 184.869 673.534C185.014 693.526 185.448 700.48 187.039 702.218C189.209 704.971 199.914 705.55 204.254 703.377C205.556 702.653 209.752 700.769 213.513 699.031C218.142 696.858 222.482 693.091 226.533 687.876C235.792 675.996 236.949 677.155 237.962 699.611C239.119 724.673 242.157 735.249 249.68 740.609C252.862 742.927 256.624 749.881 256.624 753.648C256.624 755.096 254.309 760.746 251.56 766.396C247.076 775.378 246.497 777.552 246.641 787.982C246.641 803.484 248.378 812.755 251.85 817.391C254.454 820.723 255.755 821.303 261.108 820.868C268.486 820.434 280.638 813.769 284.833 808.119C286.425 805.946 290.042 801.31 292.935 797.834C301.036 787.982 304.363 780.159 304.363 770.887C304.363 766.396 304.942 762.485 305.665 762.05C306.244 761.616 307.257 758.573 307.691 755.386C308.125 751.764 310.15 747.708 312.899 744.521C316.371 740.609 317.383 738.002 317.383 733.511C317.383 727.571 321.289 722.211 325.63 722.066C326.642 722.066 330.114 716.561 333.441 709.752C339.083 698.017 339.662 697.437 344.147 697.437C355.865 697.437 362.809 691.208 364.255 679.618C365.268 672.23 365.702 671.216 369.174 670.346C371.344 669.912 373.514 668.753 374.093 667.884C374.671 667.014 375.539 666.725 375.973 667.304C376.408 667.739 374.816 671.071 372.357 674.693C370.042 678.314 368.017 682.661 368.017 684.399C368.017 686.282 365.123 692.512 361.507 698.596C357.022 705.985 354.997 711.055 354.997 714.677C354.852 717.575 353.695 722.5 352.103 725.687C349.065 731.917 348.342 742.782 350.657 748.722C352.248 752.923 356.733 755.676 359.915 754.517C362.953 753.358 368.017 744.955 368.017 741.189C368.017 739.45 370.766 735.394 374.237 731.917C380.747 725.398 383.062 720.182 387.691 701.059C389.427 693.816 391.453 689.469 394.78 685.848C399.554 680.632 402.303 674.837 403.026 668.463C403.315 665.855 404.473 664.696 407.221 664.407C411.272 663.972 413.876 659.191 416.914 646.298C420.386 632.1 418.072 623.698 411.128 625.436C407.077 626.45 402.592 634.853 401.435 644.125L400.567 649.92L396.516 646.732C393.044 643.98 392.176 643.835 390.151 645.573C388.849 646.587 386.968 649.63 385.811 652.093C382.483 660.205 381.037 657.598 381.037 643.4C381.037 632.825 380.458 628.768 378.143 624.277C376.552 621.09 375.25 615.73 375.25 611.963C375.105 599.504 372.646 587.77 368.885 581.685C365.557 576.614 365.268 575.166 366.859 572.413C367.872 570.385 368.451 562.707 368.451 551.117C368.306 531.994 367.293 528.227 357.89 512.002C356.299 509.249 354.997 505.482 354.997 503.744C354.997 498.673 350.512 490.561 347.185 489.691C343.279 488.532 339.662 492.878 337.492 500.846C336.624 504.178 334.454 509.684 332.573 513.016C330.693 516.348 328.812 521.128 328.233 523.591C327.655 525.909 326.642 528.227 325.919 528.662C325.195 529.241 324.617 531.414 324.617 533.587C324.617 535.905 323.749 538.513 322.591 539.382C321.434 540.396 320.132 544.453 319.553 548.654C318.975 552.711 317.962 557.057 317.239 558.361C316.66 559.52 315.647 562.996 315.214 565.894C314.635 569.805 312.175 573.862 306.678 579.657C302.483 584.293 297.564 591.102 295.684 595.013C290.765 605.009 288.161 607.037 282.808 604.864C278.179 602.836 276.877 599.07 276.877 587.335C276.877 580.816 280.927 565.025 284.833 556.187C285.846 553.725 288.45 548.22 290.331 543.873C292.356 539.382 295.539 533.443 297.419 530.69C300.891 525.475 306.389 509.828 310.873 491.72C312.32 486.504 314.056 481.289 315.069 480.13C320.711 472.886 321.145 469.409 317.528 451.88C316.805 447.823 316.081 438.262 316.081 430.439C315.937 415.517 314.49 410.446 308.125 403.637C305.521 400.74 304.942 397.843 304.363 384.804C303.64 370.462 303.351 369.303 300.602 368.868C296.407 368.289 286.57 378.285 282.085 387.702C278.757 394.8 272.392 403.348 270.367 403.348C269.065 403.348 269.643 397.553 271.669 390.599C272.826 386.832 274.562 380.603 275.719 376.691C277.021 371.476 279.191 368.144 283.821 364.232C289.752 358.872 289.897 358.582 289.897 349.455C289.897 344.385 290.765 337.286 291.922 333.664C293.079 330.187 294.382 320.771 294.815 312.658C295.249 304.545 296.262 295.129 297.13 291.507C300.168 279.772 297.13 250.363 291.199 233.123C289.318 227.908 288.595 227.329 283.965 226.894C279.191 226.459 278.613 225.88 276.732 220.375C275.719 217.043 274.417 206.177 273.984 196.326C273.405 181.549 272.826 178.072 270.801 176.768C268.92 175.609 267.618 175.899 264.869 178.507C262.989 180.245 261.253 181.694 260.819 181.694C260.529 181.694 260.24 173.581 260.24 163.73C260.24 146.345 260.096 145.766 256.624 142.868C253.296 140.261 253.007 138.812 252.862 128.236C252.717 121.717 252.139 114.908 251.705 112.88C250.837 109.258 246.497 107.809 246.497 110.997Z" fill="#FAEADE"/>
<path d="M34.2739 393.351C26.1725 396.539 21.9772 401.609 20.0965 410.591C19.5179 413.344 18.5052 416.241 17.9265 417.11C17.3479 417.835 16.3352 421.891 15.7565 425.948C14.7439 434.35 16.6245 437.248 23.2792 436.378C27.0405 435.944 27.3299 436.234 26.8959 441.014C24.7259 467.091 24.5812 465.932 28.1979 465.353C31.6699 464.918 41.6519 450.286 43.3879 442.898C43.9665 440.725 47.0045 434.06 50.0425 427.976C57.4205 413.634 59.8798 406.825 59.8798 399.436C59.8798 392.772 59.5905 392.627 48.3065 391.178C43.6772 390.599 39.6265 391.323 34.2739 393.351Z" fill="#FAEADE"/>
<path d="M633.915 414.068C631.601 416.241 629.141 422.036 627.839 428.121C627.261 430.873 625.814 432.177 623.065 432.757C616.411 434.205 615.253 435.799 614.385 444.781C613.373 454.777 611.492 457.385 601.51 462.166C597.459 464.049 593.119 466.802 591.673 468.395C588.056 472.307 583.571 486.359 583.571 493.748C583.571 502.875 580.823 514.754 577.64 520.259C575.325 524.026 574.891 527.213 575.181 539.093C575.325 550.393 574.747 554.884 572.432 561.258C568.237 572.703 565.777 598.78 566.501 624.277C567.224 651.513 568.381 653.976 580.099 653.976C584.295 653.976 588.201 654.555 588.635 655.425C589.937 657.453 596.881 657.163 599.919 654.7C606.139 650.064 614.675 631.376 615.977 619.496C617.134 608.776 620.172 603.126 627.116 598.49C631.167 595.737 632.324 593.854 633.626 586.9C635.507 577.484 638.545 571.978 642.74 570.675C644.621 570.095 645.923 568.067 646.357 565.169C646.791 562.562 647.803 555.898 648.671 550.393C652.288 526.489 657.351 500.557 659.666 493.168C663.283 481.289 663.861 472.162 661.113 466.512C659.811 463.759 658.798 461.007 658.798 460.137C658.798 459.413 657.785 457.964 656.628 456.95C655.181 455.791 654.458 452.459 654.458 446.664C654.458 439.421 653.879 437.682 650.552 434.64C647.948 432.177 645.923 427.976 644.331 421.891C642.595 414.648 641.438 412.62 638.979 412.33C637.387 412.04 635.073 412.909 633.915 414.068Z" fill="#FAEADE"/>
<path d="M73.6232 435.944C71.3085 437.103 67.5472 438.262 65.3772 438.696C62.3392 439.421 60.7478 441.449 57.7098 447.968C55.6845 452.459 52.9358 458.109 51.9232 460.572C50.7658 462.89 49.4638 467.236 49.0298 469.989C48.5958 472.741 46.7152 477.957 44.8345 481.578C32.9718 504.178 33.9845 500.846 33.8398 522.867C33.8398 549.089 37.7458 561.258 46.4258 561.258C51.0552 561.258 55.6845 550.827 56.6972 537.644C57.4205 528.082 57.5652 527.648 66.5345 517.652C71.4532 512.002 78.1078 503.744 81.1458 499.253L86.6432 490.995L87.0772 466.077L87.6558 441.159L83.8945 437.393C79.6992 433.336 79.5545 433.191 73.6232 435.944Z" fill="#FAEADE"/>
<path d="M-23.162 672.23C-23.596 673.534 -24.03 676.431 -24.03 678.749C-24.03 681.936 -24.7533 682.95 -26.9233 682.95C-28.5147 682.95 -30.2507 684.109 -30.8293 685.413C-31.2633 686.862 -32.8547 690.628 -34.1567 693.816C-35.6033 697.003 -37.1947 703.667 -37.6287 708.737C-38.2073 713.663 -40.088 722.645 -42.1133 728.585C-47.3213 744.81 -47.6107 747.998 -45.0067 762.05C-41.824 779.869 -40.3773 783.636 -36.3267 785.809C-34.3013 786.823 -32.71 788.272 -32.71 788.851C-32.71 789.431 -31.6973 790.88 -30.54 792.184C-27.936 794.646 -20.992 793.198 -16.652 789.286C-14.1927 787.113 -13.7587 787.113 -10.142 790.01C-7.972 791.749 -5.80199 793.053 -5.07866 793.053C-2.47466 793.053 0.563339 788.127 0.563339 783.781C0.563339 781.318 1.14201 778.566 1.72067 777.696C2.444 776.972 4.18 773.205 5.62667 769.294C8.66467 760.891 7.94134 749.591 3.60134 740.464C2.15467 737.132 -0.0153275 730.613 -0.883327 725.832C-1.896 721.196 -3.77666 713.518 -5.368 709.027C-6.81466 704.536 -8.26133 695.844 -8.55066 690.049C-8.98466 681.357 -9.708 678.314 -12.4567 674.548C-16.218 669.477 -21.7153 668.318 -23.162 672.23Z" fill="#FAEADE"/>
<path d="M401.872 729.599C398.978 732.207 392.902 735.684 388.418 737.277C382.197 739.595 379.593 741.623 376.7 745.969C371.926 753.503 368.599 764.803 366.863 779.29C366.139 785.664 363.969 796.385 361.944 803.194C357.749 817.536 355.434 826.373 354.277 834.051C353.119 841.295 346.32 857.666 341.546 864.619C337.351 870.559 336.917 873.746 338.942 880.845C339.665 883.308 339.665 886.205 339.087 887.219C337.206 890.117 341.691 901.127 345.597 903.155C349.937 905.473 352.83 903.59 355.579 896.781L357.459 892.29L360.642 898.519C364.114 905.328 365.416 905.763 369.467 901.707C371.347 899.823 374.241 898.809 377.568 898.809C383.065 898.809 385.669 896.781 397.242 882.439C401.438 877.368 404.476 875.34 410.696 873.312C427.478 868.096 435.579 859.984 438.038 845.931C438.617 842.744 441.076 834.341 443.536 827.243C448.744 812.321 449.322 798.123 445.272 792.039C443.391 788.996 443.246 787.403 444.693 782.332C447.008 774.075 443.68 765.962 437.894 765.237C434.711 764.948 433.698 763.934 433.409 760.891C432.83 755.966 428.201 754.227 424.584 757.414C423.138 758.718 421.546 759.298 421.112 758.718C420.534 758.284 420.1 753.068 420.1 747.128C420.1 736.408 418.219 731.048 413.011 726.701C409.684 723.949 407.658 724.528 401.872 729.599Z" fill="#FAEADE"/>
<path d="M305.812 795.516C294.528 805.946 290.043 812.9 289.03 821.737C288.596 825.504 286.571 832.603 284.69 837.673C280.35 848.828 280.35 854.334 284.256 859.984C286.86 863.605 287.873 864.04 291.779 863.171C295.251 862.446 296.553 862.881 298.578 865.489C301.906 869.835 305.378 867.807 310.152 859.114C312.032 855.493 314.202 852.45 314.781 852.45C315.504 852.45 315.938 851.581 315.938 850.567C315.938 849.698 316.951 846.945 318.108 844.772C319.266 842.599 321.291 836.369 322.593 831.009C323.895 825.649 326.499 816.232 328.524 810.003C332.864 796.819 331.852 791.604 325.342 791.604C323.316 791.604 321.291 790.59 320.857 789.431C319.266 785.375 315.07 787.258 305.812 795.516Z" fill="#FAEADE"/>
</g>
</g>
<defs>
<filter id="filter0_f_1715_230" x="-128.461" y="-94.3121" width="833.121" height="1162" filterUnits="userSpaceOnUse" color-interpolation-filters="sRGB">
<feFlood flood-opacity="0" result="BackgroundImageFix"/>
<feBlend mode="normal" in="SourceGraphic" in2="BackgroundImageFix" result="shape"/>
<feGaussianBlur stdDeviation="100" result="effect1_foregroundBlur_1715_230"/>
</filter>
<clipPath id="clip0_1715_230">
<rect width="593" height="850" fill="white"/>
</clipPath>
<clipPath id="clip1_1715_230">
<rect width="1302" height="1130" fill="white" transform="translate(-168.695 -205.114)"/>
</clipPath>
</defs>
</svg>
